<?xml version="1.0" standalone="no"?>
<!DOCTYPE svg PUBLIC "-//W3C//DTD SVG 20010904//EN"
 "http://www.w3.org/TR/2001/REC-SVG-20010904/DTD/svg10.dtd">
<svg version="1.0" xmlns="http://www.w3.org/2000/svg"
 width="512.000000pt" height="512.000000pt" viewBox="0 0 512.000000 512.000000"
 preserveAspectRatio="xMidYMid meet">
<metadata>
Created by potrace 1.11, written by Peter Selinger 2001-2013
</metadata>
<g transform="translate(0.000000,512.000000) scale(0.100000,-0.100000)"
fill="#000000" stroke="none">
<path d="M2330 5110 c-782 -78 -1469 -488 -1902 -1135 -200 -300 -338 -658
-400 -1038 -31 -190 -31 -564 0 -754 46 -283 120 -514 243 -762 248 -501 649
-902 1150 -1150 248 -123 479 -197 762 -243 190 -31 564 -31 754 0 283 46 514
120 762 243 667 331 1160 941 1341 1661 59 231 73 357 73 628 0 271 -14 397
-73 628 -154 611 -536 1150 -1065 1504 -299 200 -663 340 -1033 399 -145 22
-475 33 -612 19z m-411 -2086 c55 -16 56 -19 40 -76 -11 -43 -15 -44 -83 -23
-147 45 -341 -5 -419 -109 -116 -151 -115 -407 1 -545 90 -107 255 -147 424
-102 l67 17 12 -44 c11 -40 10 -46 -4 -57 -46 -34 -292 -50 -373 -26 -230 70
-344 227 -344 473 0 157 40 267 133 366 79 83 159 123 287 142 72 11 194 4
259 -16z m685 -9 c198 -54 308 -191 323 -400 19 -277 -111 -476 -354 -540 -73
-20 -264 -30 -366 -21 l-77 8 0 478 0 479 58 6 c31 3 66 8 77 10 47 9 284 -5
339 -20z m756 -183 c197 -313 250 -401 304 -503 l51 -96 -4 398 -3 399 61 0
61 0 0 -485 0 -485 -67 0 -68 1 -182 293 c-100 161 -207 339 -238 397 -31 57
-60 107 -63 111 -4 4 -6 -175 -4 -397 l3 -405 -61 0 -60 0 0 485 0 485 73 0
72 0 125 -198z"/>
<path d="M2288 2933 l-28 -4 0 -383 0 -384 23 -6 c34 -9 125 -7 197 5 182 29
284 137 312 328 26 179 -39 337 -166 403 -74 38 -231 57 -338 41z"/>
</g>
</svg>
